M48
; DRILL file {KiCad 7.0.10-7.0.10~ubuntu22.04.1} date Sun 07 Jan 2024 11:39:35 PM PST
; FORMAT={-:-/ absolute / inch / decimal}
; #@! TF.CreationDate,2024-01-07T23:39:35-08:00
; #@! TF.GenerationSoftware,Kicad,Pcbnew,7.0.10-7.0.10~ubuntu22.04.1
; #@! TF.FileFunction,Plated,1,2,PTH
FMAT,2
INCH
; #@! TA.AperFunction,Plated,PTH,ViaDrill
T1C0.0157
; #@! TA.AperFunction,Plated,PTH,ComponentDrill
T2C0.0197
%
G90
G05
T1
X2.2015Y-2.5474
X2.5415Y-2.8224
X2.5825Y-3.9108
X2.5829Y-3.4108
X3.0665Y-2.2974
X3.5165Y-2.7474
X3.5922Y-4.1474
X3.7665Y-2.3474
X3.7665Y-2.6974
X3.7665Y-2.7724
X3.8415Y-2.3224
X3.8915Y-2.5974
X3.8915Y-2.7224
X4.0165Y-2.4724
X4.0229Y-4.4474
X4.1665Y-2.3474
X4.1665Y-2.6974
X4.1915Y-2.7724
X4.2665Y-2.4474
X4.3415Y-2.4562
X4.7165Y-2.4474
X4.7915Y-2.2974
T2
G00X3.8514Y-4.3337
M15
G01X3.8514Y-4.3612
M16
G05
G00X3.8514Y-4.4833
M15
G01X3.8514Y-4.5108
M16
G05
G00X4.1915Y-4.3337
M15
G01X4.1915Y-4.3612
M16
G05
G00X4.1915Y-4.4833
M15
G01X4.1915Y-4.5108
M16
G05
M30
