%TF.GenerationSoftware,KiCad,Pcbnew,7.0.10-7.0.10~ubuntu22.04.1*%
%TF.CreationDate,2024-01-07T23:39:05-08:00*%
%TF.ProjectId,smdPracticeBoard,736d6450-7261-4637-9469-6365426f6172,rev?*%
%TF.SameCoordinates,Original*%
%TF.FileFunction,Copper,L2,Bot*%
%TF.FilePolarity,Positive*%
%FSLAX46Y46*%
G04 Gerber Fmt 4.6, Leading zero omitted, Abs format (unit mm)*
G04 Created by KiCad (PCBNEW 7.0.10-7.0.10~ubuntu22.04.1) date 2024-01-07 23:39:05*
%MOMM*%
%LPD*%
G01*
G04 APERTURE LIST*
%TA.AperFunction,ComponentPad*%
%ADD10O,1.000000X2.000000*%
%TD*%
%TA.AperFunction,ViaPad*%
%ADD11C,0.800000*%
%TD*%
%TA.AperFunction,Conductor*%
%ADD12C,0.250000*%
%TD*%
G04 APERTURE END LIST*
D10*
%TO.P,J1,S1,SHIELD*%
%TO.N,Net-(J1-SHIELD-PadS1)*%
X97825000Y-110425000D03*
%TO.P,J1,S2,SHIELD*%
X106465000Y-110425000D03*
%TO.P,J1,S3,SHIELD*%
X97825000Y-114225000D03*
%TO.P,J1,S4,SHIELD*%
X106465000Y-114225000D03*
%TD*%
D11*
%TO.N,+5V*%
X91242500Y-105345000D03*
%TO.N,GND*%
X98845000Y-65975000D03*
X102020000Y-62800000D03*
%TO.N,/B*%
X98845000Y-69150000D03*
X97575000Y-58990000D03*
%TO.N,/S0*%
X119800000Y-62165000D03*
X77890000Y-58355000D03*
%TO.N,/B*%
X89320000Y-69785000D03*
X64555000Y-71690000D03*
%TO.N,/OUT2*%
X95670000Y-70420000D03*
X108370000Y-62165000D03*
%TO.N,/OUT3*%
X106465000Y-70420000D03*
X110275000Y-62388600D03*
%TO.N,+5V*%
X105830000Y-68515000D03*
X95670000Y-68515000D03*
X95670000Y-59625000D03*
X105830000Y-59625000D03*
X121705000Y-58355000D03*
X102182200Y-112965000D03*
X55919000Y-64705000D03*
X65605000Y-86635000D03*
X65595000Y-99335000D03*
%TD*%
D12*
%TO.N,/B*%
X97575000Y-61530000D02*
X92812500Y-66292500D01*
X97575000Y-58990000D02*
X97575000Y-61530000D01*
%TO.N,GND*%
X98845000Y-65975000D02*
X102020000Y-62800000D01*
%TO.N,/B*%
X89320000Y-69785000D02*
X92812500Y-66292500D01*
X98845000Y-69150000D02*
X95987500Y-66292500D01*
X95987500Y-66292500D02*
X92812500Y-66292500D01*
%TO.N,/S0*%
X77890000Y-58355000D02*
X79795000Y-56450000D01*
X79795000Y-56450000D02*
X114085000Y-56450000D01*
X114085000Y-56450000D02*
X119800000Y-62165000D01*
%TO.N,/B*%
X89320000Y-69785000D02*
X66460000Y-69785000D01*
X66460000Y-69785000D02*
X64555000Y-71690000D01*
%TO.N,/OUT2*%
X108370000Y-62165000D02*
X108370000Y-64070000D01*
X108370000Y-64070000D02*
X102020000Y-70420000D01*
X102020000Y-70420000D02*
X95670000Y-70420000D01*
%TO.N,/OUT3*%
X110275000Y-62388600D02*
X110275000Y-66610000D01*
X110275000Y-66610000D02*
X106465000Y-70420000D01*
%TD*%
%TA.AperFunction,Conductor*%
%TO.N,+5V*%
G36*
X139428039Y-44404685D02*
G01*
X139473794Y-44457489D01*
X139485000Y-44509000D01*
X139485000Y-115381000D01*
X139465315Y-115448039D01*
X139412511Y-115493794D01*
X139361000Y-115505000D01*
X107378476Y-115505000D01*
X107311437Y-115485315D01*
X107265682Y-115432511D01*
X107255738Y-115363353D01*
X107276701Y-115310163D01*
X107344295Y-115213049D01*
X107424540Y-115026058D01*
X107465500Y-114826741D01*
X107465500Y-113674258D01*
X107450074Y-113522562D01*
X107450074Y-113522560D01*
X107389162Y-113328420D01*
X107389160Y-113328416D01*
X107389159Y-113328412D01*
X107290409Y-113150498D01*
X107290408Y-113150497D01*
X107290407Y-113150495D01*
X107157867Y-112996106D01*
X107157865Y-112996104D01*
X106996962Y-112871554D01*
X106996959Y-112871553D01*
X106996958Y-112871552D01*
X106814271Y-112781940D01*
X106617285Y-112730937D01*
X106617287Y-112730937D01*
X106481804Y-112724066D01*
X106414064Y-112720631D01*
X106414063Y-112720631D01*
X106414061Y-112720631D01*
X106212936Y-112751442D01*
X106212924Y-112751445D01*
X106022118Y-112822111D01*
X106022111Y-112822115D01*
X105849432Y-112929745D01*
X105849427Y-112929749D01*
X105701949Y-113069938D01*
X105701948Y-113069940D01*
X105585705Y-113236949D01*
X105505459Y-113423943D01*
X105464500Y-113623258D01*
X105464500Y-114775743D01*
X105479925Y-114927439D01*
X105540837Y-115121579D01*
X105540844Y-115121594D01*
X105591605Y-115213049D01*
X105639591Y-115299502D01*
X105640214Y-115300228D01*
X105640431Y-115300709D01*
X105643184Y-115304664D01*
X105642447Y-115305176D01*
X105668947Y-115363915D01*
X105658687Y-115433027D01*
X105612691Y-115485621D01*
X105546130Y-115505000D01*
X98738476Y-115505000D01*
X98671437Y-115485315D01*
X98625682Y-115432511D01*
X98615738Y-115363353D01*
X98636701Y-115310163D01*
X98704295Y-115213049D01*
X98784540Y-115026058D01*
X98825500Y-114826741D01*
X98825500Y-113674258D01*
X98810074Y-113522562D01*
X98810074Y-113522560D01*
X98749162Y-113328420D01*
X98749160Y-113328416D01*
X98749159Y-113328412D01*
X98650409Y-113150498D01*
X98650408Y-113150497D01*
X98650407Y-113150495D01*
X98517867Y-112996106D01*
X98517865Y-112996104D01*
X98356962Y-112871554D01*
X98356959Y-112871553D01*
X98356958Y-112871552D01*
X98174271Y-112781940D01*
X97977285Y-112730937D01*
X97977287Y-112730937D01*
X97841804Y-112724066D01*
X97774064Y-112720631D01*
X97774063Y-112720631D01*
X97774061Y-112720631D01*
X97572936Y-112751442D01*
X97572924Y-112751445D01*
X97382118Y-112822111D01*
X97382111Y-112822115D01*
X97209432Y-112929745D01*
X97209427Y-112929749D01*
X97061949Y-113069938D01*
X97061948Y-113069940D01*
X96945705Y-113236949D01*
X96865459Y-113423943D01*
X96824500Y-113623258D01*
X96824500Y-114775743D01*
X96839925Y-114927439D01*
X96900837Y-115121579D01*
X96900844Y-115121594D01*
X96951605Y-115213049D01*
X96999591Y-115299502D01*
X97000214Y-115300228D01*
X97000431Y-115300709D01*
X97003184Y-115304664D01*
X97002447Y-115305176D01*
X97028947Y-115363915D01*
X97018687Y-115433027D01*
X96972691Y-115485621D01*
X96906130Y-115505000D01*
X50709000Y-115505000D01*
X50641961Y-115485315D01*
X50596206Y-115432511D01*
X50585000Y-115381000D01*
X50585000Y-110975743D01*
X96824500Y-110975743D01*
X96839925Y-111127439D01*
X96900837Y-111321579D01*
X96900844Y-111321594D01*
X96999589Y-111499499D01*
X96999592Y-111499504D01*
X97132132Y-111653893D01*
X97132134Y-111653895D01*
X97293037Y-111778445D01*
X97293038Y-111778445D01*
X97293042Y-111778448D01*
X97475729Y-111868060D01*
X97672715Y-111919063D01*
X97875936Y-111929369D01*
X98077071Y-111898556D01*
X98267887Y-111827886D01*
X98440571Y-111720252D01*
X98588053Y-111580059D01*
X98704295Y-111413049D01*
X98784540Y-111226058D01*
X98825500Y-111026741D01*
X98825500Y-110975743D01*
X105464500Y-110975743D01*
X105479925Y-111127439D01*
X105540837Y-111321579D01*
X105540844Y-111321594D01*
X105639589Y-111499499D01*
X105639592Y-111499504D01*
X105772132Y-111653893D01*
X105772134Y-111653895D01*
X105933037Y-111778445D01*
X105933038Y-111778445D01*
X105933042Y-111778448D01*
X106115729Y-111868060D01*
X106312715Y-111919063D01*
X106515936Y-111929369D01*
X106717071Y-111898556D01*
X106907887Y-111827886D01*
X107080571Y-111720252D01*
X107228053Y-111580059D01*
X107344295Y-111413049D01*
X107424540Y-111226058D01*
X107465500Y-111026741D01*
X107465500Y-109874258D01*
X107450074Y-109722562D01*
X107450074Y-109722560D01*
X107389162Y-109528420D01*
X107389160Y-109528416D01*
X107389159Y-109528412D01*
X107290409Y-109350498D01*
X107290408Y-109350497D01*
X107290407Y-109350495D01*
X107157867Y-109196106D01*
X107157865Y-109196104D01*
X106996962Y-109071554D01*
X106996959Y-109071553D01*
X106996958Y-109071552D01*
X106814271Y-108981940D01*
X106617285Y-108930937D01*
X106617287Y-108930937D01*
X106481804Y-108924066D01*
X106414064Y-108920631D01*
X106414063Y-108920631D01*
X106414061Y-108920631D01*
X106212936Y-108951442D01*
X106212924Y-108951445D01*
X106022118Y-109022111D01*
X106022111Y-109022115D01*
X105849432Y-109129745D01*
X105849427Y-109129749D01*
X105701949Y-109269938D01*
X105701948Y-109269940D01*
X105585705Y-109436949D01*
X105505459Y-109623943D01*
X105464500Y-109823258D01*
X105464500Y-110975743D01*
X98825500Y-110975743D01*
X98825500Y-109874258D01*
X98810074Y-109722562D01*
X98810074Y-109722560D01*
X98749162Y-109528420D01*
X98749160Y-109528416D01*
X98749159Y-109528412D01*
X98650409Y-109350498D01*
X98650408Y-109350497D01*
X98650407Y-109350495D01*
X98517867Y-109196106D01*
X98517865Y-109196104D01*
X98356962Y-109071554D01*
X98356959Y-109071553D01*
X98356958Y-109071552D01*
X98174271Y-108981940D01*
X97977285Y-108930937D01*
X97977287Y-108930937D01*
X97841804Y-108924066D01*
X97774064Y-108920631D01*
X97774063Y-108920631D01*
X97774061Y-108920631D01*
X97572936Y-108951442D01*
X97572924Y-108951445D01*
X97382118Y-109022111D01*
X97382111Y-109022115D01*
X97209432Y-109129745D01*
X97209427Y-109129749D01*
X97061949Y-109269938D01*
X97061948Y-109269940D01*
X96945705Y-109436949D01*
X96865459Y-109623943D01*
X96824500Y-109823258D01*
X96824500Y-110975743D01*
X50585000Y-110975743D01*
X50585000Y-71690000D01*
X63649540Y-71690000D01*
X63669326Y-71878256D01*
X63669327Y-71878259D01*
X63727818Y-72058277D01*
X63727821Y-72058284D01*
X63822467Y-72222216D01*
X63949129Y-72362888D01*
X64102265Y-72474148D01*
X64102270Y-72474151D01*
X64275192Y-72551142D01*
X64275197Y-72551144D01*
X64460354Y-72590500D01*
X64460355Y-72590500D01*
X64649644Y-72590500D01*
X64649646Y-72590500D01*
X64834803Y-72551144D01*
X65007730Y-72474151D01*
X65160871Y-72362888D01*
X65287533Y-72222216D01*
X65382179Y-72058284D01*
X65440674Y-71878256D01*
X65458321Y-71710344D01*
X65484904Y-71645734D01*
X65493951Y-71635638D01*
X66682772Y-70446819D01*
X66744095Y-70413334D01*
X66770453Y-70410500D01*
X88616252Y-70410500D01*
X88683291Y-70430185D01*
X88708400Y-70451526D01*
X88714126Y-70457885D01*
X88714130Y-70457889D01*
X88867265Y-70569148D01*
X88867270Y-70569151D01*
X89040192Y-70646142D01*
X89040197Y-70646144D01*
X89225354Y-70685500D01*
X89225355Y-70685500D01*
X89414644Y-70685500D01*
X89414646Y-70685500D01*
X89599803Y-70646144D01*
X89772730Y-70569151D01*
X89925871Y-70457888D01*
X90052533Y-70317216D01*
X90147179Y-70153284D01*
X90205674Y-69973256D01*
X90223321Y-69805345D01*
X90249905Y-69740732D01*
X90258952Y-69730636D01*
X93035272Y-66954319D01*
X93096595Y-66920834D01*
X93122953Y-66918000D01*
X95677048Y-66918000D01*
X95744087Y-66937685D01*
X95764729Y-66954319D01*
X97906038Y-69095629D01*
X97939523Y-69156952D01*
X97941678Y-69170348D01*
X97948212Y-69232510D01*
X97959326Y-69338256D01*
X97959327Y-69338259D01*
X98017818Y-69518277D01*
X98017821Y-69518284D01*
X98069907Y-69608500D01*
X98086380Y-69676401D01*
X98063527Y-69742427D01*
X98008606Y-69785618D01*
X97962520Y-69794500D01*
X96373748Y-69794500D01*
X96306709Y-69774815D01*
X96281600Y-69753474D01*
X96275873Y-69747114D01*
X96275869Y-69747110D01*
X96122734Y-69635851D01*
X96122729Y-69635848D01*
X95949807Y-69558857D01*
X95949802Y-69558855D01*
X95804001Y-69527865D01*
X95764646Y-69519500D01*
X95575354Y-69519500D01*
X95542897Y-69526398D01*
X95390197Y-69558855D01*
X95390192Y-69558857D01*
X95217270Y-69635848D01*
X95217265Y-69635851D01*
X95064129Y-69747111D01*
X94937466Y-69887785D01*
X94842821Y-70051715D01*
X94842818Y-70051722D01*
X94809819Y-70153284D01*
X94784326Y-70231744D01*
X94764540Y-70420000D01*
X94784326Y-70608256D01*
X94784327Y-70608259D01*
X94842818Y-70788277D01*
X94842821Y-70788284D01*
X94937467Y-70952216D01*
X95058401Y-71086526D01*
X95064129Y-71092888D01*
X95217265Y-71204148D01*
X95217270Y-71204151D01*
X95390192Y-71281142D01*
X95390197Y-71281144D01*
X95575354Y-71320500D01*
X95575355Y-71320500D01*
X95764644Y-71320500D01*
X95764646Y-71320500D01*
X95949803Y-71281144D01*
X96122730Y-71204151D01*
X96275871Y-71092888D01*
X96278788Y-71089647D01*
X96281600Y-71086526D01*
X96341087Y-71049879D01*
X96373748Y-71045500D01*
X101937257Y-71045500D01*
X101952877Y-71047224D01*
X101952904Y-71046939D01*
X101960660Y-71047671D01*
X101960667Y-71047673D01*
X102027873Y-71045561D01*
X102031768Y-71045500D01*
X102059346Y-71045500D01*
X102059350Y-71045500D01*
X102063324Y-71044997D01*
X102074963Y-71044080D01*
X102118627Y-71042709D01*
X102137869Y-71037117D01*
X102156912Y-71033174D01*
X102176792Y-71030664D01*
X102217401Y-71014585D01*
X102228444Y-71010803D01*
X102270390Y-70998618D01*
X102287629Y-70988422D01*
X102305103Y-70979862D01*
X102323727Y-70972488D01*
X102323727Y-70972487D01*
X102323732Y-70972486D01*
X102359083Y-70946800D01*
X102368814Y-70940408D01*
X102406420Y-70918170D01*
X102420589Y-70903999D01*
X102435379Y-70891368D01*
X102451587Y-70879594D01*
X102479438Y-70845926D01*
X102487279Y-70837309D01*
X108753788Y-64570801D01*
X108766042Y-64560986D01*
X108765859Y-64560764D01*
X108771868Y-64555791D01*
X108771877Y-64555786D01*
X108817949Y-64506722D01*
X108820566Y-64504023D01*
X108840120Y-64484471D01*
X108842576Y-64481303D01*
X108850156Y-64472427D01*
X108880062Y-64440582D01*
X108889713Y-64423024D01*
X108900396Y-64406761D01*
X108912673Y-64390936D01*
X108930021Y-64350844D01*
X108935151Y-64340371D01*
X108956197Y-64302092D01*
X108961180Y-64282680D01*
X108967481Y-64264280D01*
X108975437Y-64245896D01*
X108982270Y-64202748D01*
X108984633Y-64191338D01*
X108995500Y-64149019D01*
X108995500Y-64128983D01*
X108997027Y-64109582D01*
X109000160Y-64089804D01*
X108996050Y-64046324D01*
X108995500Y-64034655D01*
X108995500Y-62863687D01*
X109015185Y-62796648D01*
X109027350Y-62780715D01*
X109055232Y-62749747D01*
X109102533Y-62697216D01*
X109171819Y-62577207D01*
X109222383Y-62528995D01*
X109290990Y-62515771D01*
X109355855Y-62541739D01*
X109396384Y-62598652D01*
X109397135Y-62600891D01*
X109447819Y-62756880D01*
X109447821Y-62756884D01*
X109542467Y-62920816D01*
X109585772Y-62968910D01*
X109617650Y-63004315D01*
X109647880Y-63067306D01*
X109649500Y-63087287D01*
X109649500Y-66299547D01*
X109629815Y-66366586D01*
X109613181Y-66387228D01*
X106517228Y-69483181D01*
X106455905Y-69516666D01*
X106429547Y-69519500D01*
X106370354Y-69519500D01*
X106337897Y-69526398D01*
X106185197Y-69558855D01*
X106185192Y-69558857D01*
X106012270Y-69635848D01*
X106012265Y-69635851D01*
X105859129Y-69747111D01*
X105732466Y-69887785D01*
X105637821Y-70051715D01*
X105637818Y-70051722D01*
X105604819Y-70153284D01*
X105579326Y-70231744D01*
X105559540Y-70420000D01*
X105579326Y-70608256D01*
X105579327Y-70608259D01*
X105637818Y-70788277D01*
X105637821Y-70788284D01*
X105732467Y-70952216D01*
X105853401Y-71086526D01*
X105859129Y-71092888D01*
X106012265Y-71204148D01*
X106012270Y-71204151D01*
X106185192Y-71281142D01*
X106185197Y-71281144D01*
X106370354Y-71320500D01*
X106370355Y-71320500D01*
X106559644Y-71320500D01*
X106559646Y-71320500D01*
X106744803Y-71281144D01*
X106917730Y-71204151D01*
X107070871Y-71092888D01*
X107197533Y-70952216D01*
X107292179Y-70788284D01*
X107350674Y-70608256D01*
X107368321Y-70440345D01*
X107394905Y-70375732D01*
X107403952Y-70365636D01*
X110658786Y-67110802D01*
X110671048Y-67100980D01*
X110670865Y-67100759D01*
X110676868Y-67095791D01*
X110676877Y-67095786D01*
X110722934Y-67046739D01*
X110725582Y-67044006D01*
X110745120Y-67024470D01*
X110747570Y-67021310D01*
X110755154Y-67012429D01*
X110785062Y-66980582D01*
X110794714Y-66963023D01*
X110805389Y-66946772D01*
X110817674Y-66930936D01*
X110835030Y-66890825D01*
X110840161Y-66880354D01*
X110861194Y-66842098D01*
X110861194Y-66842097D01*
X110861197Y-66842092D01*
X110866180Y-66822680D01*
X110872477Y-66804291D01*
X110880438Y-66785895D01*
X110887270Y-66742748D01*
X110889639Y-66731316D01*
X110900499Y-66689022D01*
X110900500Y-66689017D01*
X110900500Y-66668983D01*
X110902027Y-66649582D01*
X110905160Y-66629804D01*
X110901050Y-66586324D01*
X110900500Y-66574655D01*
X110900500Y-63087287D01*
X110920185Y-63020248D01*
X110932350Y-63004315D01*
X110950891Y-62983722D01*
X111007533Y-62920816D01*
X111102179Y-62756884D01*
X111160674Y-62576856D01*
X111180460Y-62388600D01*
X111160674Y-62200344D01*
X111102179Y-62020316D01*
X111007533Y-61856384D01*
X110880871Y-61715712D01*
X110867362Y-61705897D01*
X110727734Y-61604451D01*
X110727729Y-61604448D01*
X110554807Y-61527457D01*
X110554802Y-61527455D01*
X110388516Y-61492111D01*
X110369646Y-61488100D01*
X110180354Y-61488100D01*
X110161484Y-61492111D01*
X109995197Y-61527455D01*
X109995192Y-61527457D01*
X109822270Y-61604448D01*
X109822265Y-61604451D01*
X109669129Y-61715711D01*
X109542466Y-61856385D01*
X109473182Y-61976389D01*
X109422615Y-62024605D01*
X109354008Y-62037828D01*
X109289143Y-62011860D01*
X109248615Y-61954946D01*
X109247864Y-61952707D01*
X109197181Y-61796722D01*
X109197180Y-61796721D01*
X109197179Y-61796716D01*
X109102533Y-61632784D01*
X108975871Y-61492112D01*
X108970349Y-61488100D01*
X108822734Y-61380851D01*
X108822729Y-61380848D01*
X108649807Y-61303857D01*
X108649802Y-61303855D01*
X108494798Y-61270909D01*
X108464646Y-61264500D01*
X108275354Y-61264500D01*
X108245202Y-61270909D01*
X108090197Y-61303855D01*
X108090192Y-61303857D01*
X107917270Y-61380848D01*
X107917265Y-61380851D01*
X107764129Y-61492111D01*
X107637466Y-61632785D01*
X107542821Y-61796715D01*
X107542818Y-61796722D01*
X107487559Y-61966794D01*
X107484326Y-61976744D01*
X107464540Y-62165000D01*
X107484326Y-62353256D01*
X107484327Y-62353259D01*
X107542818Y-62533277D01*
X107542821Y-62533284D01*
X107637467Y-62697216D01*
X107680772Y-62745310D01*
X107712650Y-62780715D01*
X107742880Y-62843706D01*
X107744500Y-62863687D01*
X107744500Y-63759547D01*
X107724815Y-63826586D01*
X107708181Y-63847228D01*
X101797228Y-69758181D01*
X101735905Y-69791666D01*
X101709547Y-69794500D01*
X99727480Y-69794500D01*
X99660441Y-69774815D01*
X99614686Y-69722011D01*
X99604742Y-69652853D01*
X99620093Y-69608500D01*
X99648754Y-69558857D01*
X99672179Y-69518284D01*
X99730674Y-69338256D01*
X99750460Y-69150000D01*
X99730674Y-68961744D01*
X99672179Y-68781716D01*
X99577533Y-68617784D01*
X99450871Y-68477112D01*
X99450870Y-68477111D01*
X99297734Y-68365851D01*
X99297729Y-68365848D01*
X99124807Y-68288857D01*
X99124802Y-68288855D01*
X98979001Y-68257865D01*
X98939646Y-68249500D01*
X98939645Y-68249500D01*
X98880453Y-68249500D01*
X98813414Y-68229815D01*
X98792772Y-68213181D01*
X96554591Y-65975000D01*
X97939540Y-65975000D01*
X97959326Y-66163256D01*
X97959327Y-66163259D01*
X98017818Y-66343277D01*
X98017821Y-66343284D01*
X98112467Y-66507216D01*
X98222846Y-66629804D01*
X98239129Y-66647888D01*
X98392265Y-66759148D01*
X98392270Y-66759151D01*
X98565192Y-66836142D01*
X98565197Y-66836144D01*
X98750354Y-66875500D01*
X98750355Y-66875500D01*
X98939644Y-66875500D01*
X98939646Y-66875500D01*
X99124803Y-66836144D01*
X99297730Y-66759151D01*
X99450871Y-66647888D01*
X99577533Y-66507216D01*
X99672179Y-66343284D01*
X99730674Y-66163256D01*
X99748321Y-65995344D01*
X99774904Y-65930734D01*
X99783951Y-65920638D01*
X101967772Y-63736819D01*
X102029095Y-63703334D01*
X102055453Y-63700500D01*
X102114644Y-63700500D01*
X102114646Y-63700500D01*
X102299803Y-63661144D01*
X102472730Y-63584151D01*
X102625871Y-63472888D01*
X102752533Y-63332216D01*
X102847179Y-63168284D01*
X102905674Y-62988256D01*
X102925460Y-62800000D01*
X102905674Y-62611744D01*
X102847179Y-62431716D01*
X102752533Y-62267784D01*
X102625871Y-62127112D01*
X102603183Y-62110628D01*
X102472734Y-62015851D01*
X102472729Y-62015848D01*
X102299807Y-61938857D01*
X102299802Y-61938855D01*
X102154001Y-61907865D01*
X102114646Y-61899500D01*
X101925354Y-61899500D01*
X101892897Y-61906398D01*
X101740197Y-61938855D01*
X101740192Y-61938857D01*
X101567270Y-62015848D01*
X101567265Y-62015851D01*
X101414129Y-62127111D01*
X101287466Y-62267785D01*
X101192821Y-62431715D01*
X101192818Y-62431722D01*
X101138580Y-62598652D01*
X101134326Y-62611744D01*
X101125343Y-62697214D01*
X101116679Y-62779649D01*
X101090094Y-62844263D01*
X101081039Y-62854368D01*
X98897228Y-65038181D01*
X98835905Y-65071666D01*
X98809547Y-65074500D01*
X98750354Y-65074500D01*
X98717897Y-65081398D01*
X98565197Y-65113855D01*
X98565192Y-65113857D01*
X98392270Y-65190848D01*
X98392265Y-65190851D01*
X98239129Y-65302111D01*
X98112466Y-65442785D01*
X98017821Y-65606715D01*
X98017818Y-65606722D01*
X97960725Y-65782438D01*
X97959326Y-65786744D01*
X97939540Y-65975000D01*
X96554591Y-65975000D01*
X96488303Y-65908712D01*
X96478480Y-65896450D01*
X96478259Y-65896634D01*
X96473286Y-65890622D01*
X96424276Y-65844599D01*
X96421477Y-65841886D01*
X96401977Y-65822385D01*
X96400358Y-65821129D01*
X96398786Y-65819909D01*
X96389934Y-65812348D01*
X96358082Y-65782438D01*
X96358080Y-65782436D01*
X96358077Y-65782435D01*
X96340529Y-65772788D01*
X96324263Y-65762104D01*
X96308432Y-65749824D01*
X96268349Y-65732478D01*
X96257863Y-65727341D01*
X96219594Y-65706303D01*
X96219592Y-65706302D01*
X96200193Y-65701322D01*
X96181781Y-65695018D01*
X96163398Y-65687062D01*
X96163392Y-65687060D01*
X96120260Y-65680229D01*
X96108822Y-65677861D01*
X96066520Y-65667000D01*
X96066519Y-65667000D01*
X96046484Y-65667000D01*
X96027086Y-65665473D01*
X96019662Y-65664297D01*
X96007305Y-65662340D01*
X96007304Y-65662340D01*
X95963825Y-65666450D01*
X95952156Y-65667000D01*
X94621952Y-65667000D01*
X94554913Y-65647315D01*
X94509158Y-65594511D01*
X94499214Y-65525353D01*
X94528239Y-65461797D01*
X94534271Y-65455319D01*
X96230043Y-63759547D01*
X97958788Y-62030801D01*
X97971042Y-62020986D01*
X97970859Y-62020764D01*
X97976868Y-62015791D01*
X97976877Y-62015786D01*
X98022949Y-61966722D01*
X98025566Y-61964023D01*
X98045120Y-61944471D01*
X98047576Y-61941303D01*
X98055156Y-61932427D01*
X98085062Y-61900582D01*
X98094713Y-61883024D01*
X98105396Y-61866761D01*
X98117673Y-61850936D01*
X98135021Y-61810844D01*
X98140151Y-61800371D01*
X98161197Y-61762092D01*
X98166180Y-61742680D01*
X98172481Y-61724280D01*
X98180437Y-61705896D01*
X98187270Y-61662748D01*
X98189633Y-61651338D01*
X98200500Y-61609019D01*
X98200500Y-61588983D01*
X98202027Y-61569582D01*
X98205160Y-61549804D01*
X98201050Y-61506324D01*
X98200500Y-61494655D01*
X98200500Y-59688687D01*
X98220185Y-59621648D01*
X98232350Y-59605715D01*
X98250891Y-59585122D01*
X98307533Y-59522216D01*
X98402179Y-59358284D01*
X98460674Y-59178256D01*
X98480460Y-58990000D01*
X98460674Y-58801744D01*
X98402179Y-58621716D01*
X98307533Y-58457784D01*
X98180871Y-58317112D01*
X98180870Y-58317111D01*
X98027734Y-58205851D01*
X98027729Y-58205848D01*
X97854807Y-58128857D01*
X97854802Y-58128855D01*
X97709001Y-58097865D01*
X97669646Y-58089500D01*
X97480354Y-58089500D01*
X97447897Y-58096398D01*
X97295197Y-58128855D01*
X97295192Y-58128857D01*
X97122270Y-58205848D01*
X97122265Y-58205851D01*
X96969129Y-58317111D01*
X96842466Y-58457785D01*
X96747821Y-58621715D01*
X96747818Y-58621722D01*
X96714819Y-58723284D01*
X96689326Y-58801744D01*
X96669540Y-58990000D01*
X96689326Y-59178256D01*
X96689327Y-59178259D01*
X96747818Y-59358277D01*
X96747821Y-59358284D01*
X96842467Y-59522216D01*
X96885772Y-59570310D01*
X96917650Y-59605715D01*
X96947880Y-59668706D01*
X96949500Y-59688687D01*
X96949500Y-61219546D01*
X96929815Y-61286585D01*
X96913181Y-61307227D01*
X92411911Y-65808496D01*
X92397121Y-65821129D01*
X92380914Y-65832905D01*
X92380912Y-65832906D01*
X92353073Y-65866557D01*
X92345229Y-65875179D01*
X92342389Y-65878020D01*
X92342373Y-65878035D01*
X89372228Y-68848181D01*
X89310905Y-68881666D01*
X89284547Y-68884500D01*
X89225354Y-68884500D01*
X89192897Y-68891398D01*
X89040197Y-68923855D01*
X89040192Y-68923857D01*
X88867270Y-69000848D01*
X88867265Y-69000851D01*
X88714130Y-69112110D01*
X88714126Y-69112114D01*
X88708400Y-69118474D01*
X88648913Y-69155121D01*
X88616252Y-69159500D01*
X66542743Y-69159500D01*
X66527122Y-69157775D01*
X66527096Y-69158061D01*
X66519334Y-69157327D01*
X66519333Y-69157327D01*
X66457109Y-69159282D01*
X66452127Y-69159439D01*
X66448232Y-69159500D01*
X66420647Y-69159500D01*
X66416661Y-69160003D01*
X66405033Y-69160918D01*
X66361373Y-69162290D01*
X66342129Y-69167881D01*
X66323079Y-69171825D01*
X66303211Y-69174334D01*
X66303210Y-69174334D01*
X66262599Y-69190413D01*
X66251554Y-69194194D01*
X66209614Y-69206379D01*
X66209610Y-69206381D01*
X66192366Y-69216579D01*
X66174905Y-69225133D01*
X66156274Y-69232510D01*
X66156262Y-69232517D01*
X66120933Y-69258185D01*
X66111173Y-69264596D01*
X66073580Y-69286829D01*
X66059414Y-69300995D01*
X66044624Y-69313627D01*
X66028414Y-69325404D01*
X66028411Y-69325407D01*
X66000573Y-69359058D01*
X65992711Y-69367697D01*
X64607228Y-70753181D01*
X64545905Y-70786666D01*
X64519547Y-70789500D01*
X64460354Y-70789500D01*
X64427897Y-70796398D01*
X64275197Y-70828855D01*
X64275192Y-70828857D01*
X64102270Y-70905848D01*
X64102265Y-70905851D01*
X63949129Y-71017111D01*
X63822466Y-71157785D01*
X63727821Y-71321715D01*
X63727818Y-71321722D01*
X63669327Y-71501740D01*
X63669326Y-71501744D01*
X63649540Y-71690000D01*
X50585000Y-71690000D01*
X50585000Y-58355000D01*
X76984540Y-58355000D01*
X77004326Y-58543256D01*
X77004327Y-58543259D01*
X77062818Y-58723277D01*
X77062821Y-58723284D01*
X77157467Y-58887216D01*
X77284129Y-59027888D01*
X77437265Y-59139148D01*
X77437270Y-59139151D01*
X77610192Y-59216142D01*
X77610197Y-59216144D01*
X77795354Y-59255500D01*
X77795355Y-59255500D01*
X77984644Y-59255500D01*
X77984646Y-59255500D01*
X78169803Y-59216144D01*
X78342730Y-59139151D01*
X78495871Y-59027888D01*
X78622533Y-58887216D01*
X78717179Y-58723284D01*
X78775674Y-58543256D01*
X78793321Y-58375344D01*
X78819904Y-58310734D01*
X78828951Y-58300638D01*
X80017772Y-57111819D01*
X80079095Y-57078334D01*
X80105453Y-57075500D01*
X113774548Y-57075500D01*
X113841587Y-57095185D01*
X113862229Y-57111819D01*
X118861038Y-62110628D01*
X118894523Y-62171951D01*
X118896678Y-62185347D01*
X118904139Y-62256338D01*
X118914326Y-62353256D01*
X118914327Y-62353259D01*
X118972818Y-62533277D01*
X118972821Y-62533284D01*
X119067467Y-62697216D01*
X119174499Y-62816087D01*
X119194129Y-62837888D01*
X119347265Y-62949148D01*
X119347270Y-62949151D01*
X119520192Y-63026142D01*
X119520197Y-63026144D01*
X119705354Y-63065500D01*
X119705355Y-63065500D01*
X119894644Y-63065500D01*
X119894646Y-63065500D01*
X120079803Y-63026144D01*
X120252730Y-62949151D01*
X120405871Y-62837888D01*
X120532533Y-62697216D01*
X120627179Y-62533284D01*
X120685674Y-62353256D01*
X120705460Y-62165000D01*
X120685674Y-61976744D01*
X120627179Y-61796716D01*
X120532533Y-61632784D01*
X120405871Y-61492112D01*
X120400349Y-61488100D01*
X120252734Y-61380851D01*
X120252729Y-61380848D01*
X120079807Y-61303857D01*
X120079802Y-61303855D01*
X119924798Y-61270909D01*
X119894646Y-61264500D01*
X119894645Y-61264500D01*
X119835453Y-61264500D01*
X119768414Y-61244815D01*
X119747772Y-61228181D01*
X114585803Y-56066212D01*
X114575980Y-56053950D01*
X114575759Y-56054134D01*
X114570786Y-56048122D01*
X114521776Y-56002099D01*
X114518977Y-55999386D01*
X114499477Y-55979885D01*
X114499471Y-55979880D01*
X114496286Y-55977409D01*
X114487434Y-55969848D01*
X114455582Y-55939938D01*
X114455580Y-55939936D01*
X114455577Y-55939935D01*
X114438029Y-55930288D01*
X114421763Y-55919604D01*
X114405932Y-55907324D01*
X114365849Y-55889978D01*
X114355363Y-55884841D01*
X114317094Y-55863803D01*
X114317092Y-55863802D01*
X114297693Y-55858822D01*
X114279281Y-55852518D01*
X114260898Y-55844562D01*
X114260892Y-55844560D01*
X114217760Y-55837729D01*
X114206322Y-55835361D01*
X114164020Y-55824500D01*
X114164019Y-55824500D01*
X114143984Y-55824500D01*
X114124586Y-55822973D01*
X114117162Y-55821797D01*
X114104805Y-55819840D01*
X114104804Y-55819840D01*
X114061325Y-55823950D01*
X114049656Y-55824500D01*
X79877743Y-55824500D01*
X79862122Y-55822775D01*
X79862096Y-55823061D01*
X79854334Y-55822327D01*
X79854333Y-55822327D01*
X79802688Y-55823950D01*
X79787127Y-55824439D01*
X79783232Y-55824500D01*
X79755647Y-55824500D01*
X79751661Y-55825003D01*
X79740033Y-55825918D01*
X79696373Y-55827290D01*
X79677129Y-55832881D01*
X79658079Y-55836825D01*
X79638211Y-55839334D01*
X79638210Y-55839334D01*
X79597599Y-55855413D01*
X79586554Y-55859194D01*
X79544614Y-55871379D01*
X79544610Y-55871381D01*
X79527366Y-55881579D01*
X79509905Y-55890133D01*
X79491274Y-55897510D01*
X79491262Y-55897517D01*
X79455933Y-55923185D01*
X79446173Y-55929596D01*
X79408580Y-55951829D01*
X79394414Y-55965995D01*
X79379624Y-55978627D01*
X79363414Y-55990404D01*
X79363411Y-55990407D01*
X79335573Y-56024058D01*
X79327711Y-56032697D01*
X77942228Y-57418181D01*
X77880905Y-57451666D01*
X77854547Y-57454500D01*
X77795354Y-57454500D01*
X77762897Y-57461398D01*
X77610197Y-57493855D01*
X77610192Y-57493857D01*
X77437270Y-57570848D01*
X77437265Y-57570851D01*
X77284129Y-57682111D01*
X77157466Y-57822785D01*
X77062821Y-57986715D01*
X77062818Y-57986722D01*
X77016636Y-58128857D01*
X77004326Y-58166744D01*
X76984540Y-58355000D01*
X50585000Y-58355000D01*
X50585000Y-44509000D01*
X50604685Y-44441961D01*
X50657489Y-44396206D01*
X50709000Y-44385000D01*
X139361000Y-44385000D01*
X139428039Y-44404685D01*
G37*
%TD.AperFunction*%
%TD*%
M02*
